HIERARCHY
ROOT Hips
{
  OFFSET -102.467 93.6631 130.069
  CHANNELS 6 Xposition Yposition Zposition Zrotation Xrotation Yrotation
  JOINT LeftUpLeg
  {
    OFFSET 8.64259 1.95398 -2.38835
    CHANNELS 3 Zrotation Xrotation Yrotation
    JOINT LeftLeg
    {
      OFFSET 43.7702 0 0
      CHANNELS 3 Zrotation Xrotation Yrotation
      JOINT LeftFoot
      {
        OFFSET 40.6238 0 0
        CHANNELS 3 Zrotation Xrotation Yrotation
        JOINT LeftToeBase
        {
          OFFSET 12.7242 0 0
          CHANNELS 3 Zrotation Xrotation Yrotation
          End Site
          {
            OFFSET 0 0 0
          }
        }
      }
    }
  }
  JOINT RightUpLeg
  {
    OFFSET -8.2249 1.95398 -2.59336
    CHANNELS 3 Zrotation Xrotation Yrotation
    JOINT RightLeg
    {
      OFFSET 43.5653 0 0
      CHANNELS 3 Zrotation Xrotation Yrotation
      JOINT RightFoot
      {
        OFFSET 40.6238 0 0
        CHANNELS 3 Zrotation Xrotation Yrotation
        JOINT RightToeBase
        {
          OFFSET 12.7242 0 0
          CHANNELS 3 Zrotation Xrotation Yrotation
          End Site
          {
            OFFSET 0 0 0
          }
        }
      }
    }
  }
  JOINT Spine
  {
    OFFSET 0.165834 0.87714 6.61349
    CHANNELS 3 Zrotation Xrotation Yrotation
    JOINT Spine1
    {
      OFFSET 7.38963 1.71661e-005 0
      CHANNELS 3 Zrotation Xrotation Yrotation
      JOINT Spine2
      {
        OFFSET 11.9445 1.14441e-005 0
        CHANNELS 3 Zrotation Xrotation Yrotation
        JOINT Spine3
        {
          OFFSET 14.7254 4.19617e-005 0
          CHANNELS 3 Zrotation Xrotation Yrotation
          JOINT Spine4
          {
            OFFSET 10.9679 0 0
            CHANNELS 3 Zrotation Xrotation Yrotation
            JOINT RightShoulder
            {
              OFFSET 2.46616 -1.6653 3.69651
              CHANNELS 3 Zrotation Xrotation Yrotation
              JOINT RightArm
              {
                OFFSET 13.0012 0 0
                CHANNELS 3 Zrotation Xrotation Yrotation
                JOINT RightForeArm
                {
                  OFFSET 28.7848 1.52588e-005 0
                  CHANNELS 3 Zrotation Xrotation Yrotation
                  JOINT RightHand
                  {
                    OFFSET 26.5688 1.52588e-005 0
                    CHANNELS 3 Zrotation Xrotation Yrotation
                    End Site
                    {
                      OFFSET 0 0 0
                    }
                  }
                }
              }
            }
            JOINT LeftShoulder
            {
              OFFSET 2.38034 -1.29275 -3.7523
              CHANNELS 3 Zrotation Xrotation Yrotation
              JOINT LeftArm
              {
                OFFSET 16.3182 6.10351e-005 0
                CHANNELS 3 Zrotation Xrotation Yrotation
                JOINT LeftForeArm
                {
                  OFFSET 27.0901 0 0
                  CHANNELS 3 Zrotation Xrotation Yrotation
                  JOINT LeftHand
                  {
                    OFFSET 24.5451 1.52588e-005 0
                    CHANNELS 3 Zrotation Xrotation Yrotation
                    End Site
                    {
                      OFFSET 0 0 0
                    }
                  }
                }
              }
            }
            JOINT Neck
            {
              OFFSET 5.0226 -0.0266342 0
              CHANNELS 3 Zrotation Xrotation Yrotation
              JOINT Head
              {
                OFFSET 6.69363 2.86102e-005 0
                CHANNELS 3 Zrotation Xrotation Yrotation
                End Site
                {
                  OFFSET 0 0 0
                }
              }
            }
          }
        }
      }
    }
  }
}
MOTION
Frames:	12
Frame Time:	0.0416667
-18.6306 94.735 7.98365 106.137 47.1622 79.0115 179.919 22.6881 88.9279 -17.1001 14.8773 1.85406 44.0881 -7.19941 2.70241 57.6365 -3.67968 -0.667805 176.838 -11.0726 94.784 -45.4904 -7.4698 -2.17417 60.6107 6.46129 15.4852 31.1526 -0.0521013 2.93735 0.792634 7.48239 -89.9468 11.908 1.60139 -0.0531718 0.237963 1.59751 -0.123627 -22.3039 1.54332 0.430664 -2.29129 1.5433 0.430661 102.901 -49.2738 -81.0074 29.6939 -23.5068 6.98715 -2.44095 4.11123 -45.2421 -11.4751 0.133983 -6.82669 -83.5158 -52.3106 88.4818 -20.2752 32.1178 22.1128 21.4734 14.9357 -53.0474 -0.986428 -0.130964 -7.36421 3.08537 -1.7581 -2.35173 -26.5755 -1.55796 1.20698 
-3.4186 91.6153 -7.32527 108.583 43.8014 79.5305 -177.796 23.9501 90.1362 -28.5018 21.0213 1.21136 47.5704 -5.02674 7.67689 43.2216 -1.35107 2.0096 175.712 -8.69523 91.9856 -68.2631 -6.13339 -3.23888 55.7116 4.82549 7.99558 39.7712 -3.07052 -1.51609 0.900154 7.71465 -90.1717 11.4472 1.71041 -0.527317 -0.222792 1.68556 -0.602112 -22.7667 1.78983 0.0112708 -2.75408 1.78981 0.011271 102.524 -49.0225 -81.6023 29.5091 -26.0858 4.04095 -8.12563 1.09953 -49.5142 -9.81157 0.136027 -6.91166 -83.8952 -49.5632 87.6288 -23.9868 32.0644 27.162 24.9667 14.6876 -55.6916 -0.922265 -0.132735 -7.70565 5.3087 -0.716099 -1.66151 -27.658 -0.784629 1.79317 
9.84437 87.2918 -20.7309 113.457 42.1789 71.5776 -175.931 23.1827 83.3876 -57.8047 19.625 0.713441 59.2163 7.33667 19.8038 48.3921 -1.72019 2.45405 175.914 8.25837 86.8054 -92.3404 -10.1535 -4.16129 54.8059 2.8709 3.72595 50.6064 -3.98127 3.7651 0.276197 8.61876 -89.4803 9.63204 0.785401 0.969725 -2.039 0.827308 0.93422 -24.572 0.457679 1.16092 -4.55941 0.45765 1.16092 101.513 -51.8836 -83.1637 30.869 -19.0688 -0.134356 -9.53451 -3.70556 -45.6635 -15.2404 -0.428492 -1.96509 -84.1375 -52.9245 87.6307 -10.2056 27.9667 8.85639 20.9396 20.07 -48.055 -2.08575 -0.0962703 -6.65857 10.9227 0.43031 -5.80216 -26.601 0.360049 7.15982 
22.3618 89.0085 -32.8067 114.509 44.2676 72.8909 -175.976 12.9312 86.5681 -62.4059 24.6264 2.07783 60.8982 10.5398 23.5536 61.0707 -0.908711 8.40655 175.255 24.9569 89.6777 -82.5553 -7.19127 -2.59465 59.8826 3.11703 9.39227 52.1508 -2.33767 8.95838 -0.301333 8.63977 -89.6906 9.59667 -0.461088 0.650748 -2.07442 -0.431987 0.670404 -24.6091 -0.635358 0.482094 -4.59647 -0.635343 0.482098 101.84 -53.0209 -82.6592 33.2285 -16.9154 4.92 -6.99361 -5.63177 -38.4074 -20.0512 -0.889794 -0.0759977 -84.169 -55.1288 87.8177 -3.77895 18.8193 -8.47236 38.2924 32.9794 -55.3305 -3.23927 -0.104196 -1.54795 5.43599 2.1445 -5.47723 -26.5043 1.49452 8.30847 
34.8097 93.0993 -44.8369 115.831 49.9907 72.8185 179.456 6.88375 89.2826 -64.1604 22.4793 4.99415 53.184 -0.717091 7.70141 55.8438 -1.16229 6.29512 175.415 26.3073 89.0131 -45.4965 -5.60709 0.182653 60.784 6.16895 13.2806 49.8685 -2.41255 7.65485 -0.875745 8.42552 -89.9893 10.0246 -1.74038 0.16559 -1.64519 -1.73138 0.242044 -24.1897 -1.70967 -0.365277 -4.1771 -1.70965 -0.365285 101.512 -52.4321 -83.1592 33.9476 -15.614 15.0406 -8.10151 -7.54452 -35.7487 -14.511 -0.416204 -1.84778 -83.415 -53.6318 88.7561 -3.01522 21.9183 -13.452 26.0847 9.51822 -60.464 2.94676 -0.0701801 -4.0666 1.95915 2.42729 -5.31791 -26.3436 1.6265 8.21166 
48.0373 92.1789 -57.668 118.259 51.6227 69.6799 176.082 6.27743 87.677 -72.1658 14.6335 5.66097 53.4432 0.61206 9.0361 50.0188 -0.657576 7.1858 175.871 22.8318 87.2885 -29.6296 -3.91626 1.28843 57.7489 9.26865 16.4501 45.2499 -2.96897 3.2236 -0.753577 8.29197 -90.006 10.2902 -1.50416 0.121636 -1.37994 -1.49736 0.187742 -23.9217 -1.47118 -0.336154 -3.90907 -1.47119 -0.336156 100.893 -49.5684 -84.1622 35.2986 -14.4982 24.4275 -8.63046 -7.15102 -36.2877 -10.7934 -0.176546 -3.47132 -83.4506 -52.7319 88.6189 2.13723 28.5127 -11.8183 16.5323 -13.7547 -84.1821 6.03361 -0.25601 -6.31348 -1.29079 1.37661 -3.75914 -24.2479 0.7246 6.35714 
59.8126 87.6725 -68.7627 125.569 48.9921 67.3087 177.337 11.4212 90.0238 -85.8103 9.53939 4.8782 56.6293 6.46703 16.6691 53.5684 -0.758432 7.55671 172.205 24.4396 91.3933 -53.2261 -16.9114 2.77407 52.8189 7.8447 6.81744 35.1399 -1.01389 2.27472 -0.237937 8.96836 -90.5343 8.93288 -0.712754 -1.00904 -2.73824 -0.756487 -0.976683 -25.2708 -0.376583 -1.17657 -5.25816 -0.376581 -1.17657 100.031 -48.9577 -85.5417 30.1555 -16.1674 20.0229 -9.29023 -11.5144 -32.1489 -10.7461 -0.316942 -1.8242 -83.6328 -54.5819 88.5311 -1.02586 25.8683 -6.99455 21.6066 -17.3757 -97.846 18.2643 0.251615 -2.4908 1.26409 0.541548 -1.55797 -22.7367 0.0673045 4.28171 
69.9256 88.0962 -78.4382 128.301 52.0858 67.5346 174.056 20.8839 90.8977 -79.6859 10.2188 5.39198 59.5693 8.58177 15.9993 56.188 -0.209856 9.68578 168.314 16.6912 94.442 -59.6358 -19.2189 5.27087 60.1559 -1.69273 -5.42001 50.1894 -3.94427 3.57369 -0.384514 9.10138 -90.9349 8.65825 -1.18155 -1.7738 -3.01335 -1.25847 -1.72011 -25.5398 -0.593972 -2.0468 -5.5272 -0.593956 -2.04679 101.042 -51.7726 -83.8833 20.5459 -13.2763 2.18706 -6.9289 -18.2586 -20.6239 -7.57332 -0.439268 1.52958 -83.7492 -56.0164 88.5012 -10.2708 22.7471 -5.05268 32.609 -4.92172 -76.1927 17.2206 0.426642 -1.32916 -0.605257 -0.192905 -3.79281 -21.7991 -0.558981 5.59101 
78.7948 92.2624 -86.9852 121.642 49.0393 70.4611 178.476 21.2824 87.6956 -46.8299 12.6626 3.62854 58.4839 5.45382 11.7836 58.0393 -0.0442219 10.3436 173.831 8.07247 95.9796 -55.0999 -10.187 1.07485 64.1655 -0.701491 1.8922 53.4613 -4.21585 4.77819 0.0561193 8.81804 -90.5268 9.23791 -0.12416 -1.03688 -2.4334 -0.169675 -1.03041 -24.9656 0.193176 -1.02626 -4.95299 0.193193 -1.02626 100.805 -52.1982 -84.2371 20.9143 -13.318 -5.96001 -6.56926 -12.5265 -24.5923 -10.1403 -0.510484 0.709701 -84.3974 -56.6092 87.6471 -14.5942 20.8037 -2.69645 45.5498 23.5068 -64.6749 -9.59363 -0.224597 -1.87591 0.194942 -0.475232 -5.8523 -22.9982 -0.723375 6.45316 
88.0386 94.8318 -96.5068 114.37 47.5302 77.2576 -179.848 16.0865 89.3229 -15.0562 18.9284 2.33987 50.8718 -1.99899 5.5935 52.5138 -0.426805 8.90041 178.104 -0.491794 98.8139 -46.357 -3.0851 -1.24504 67.6221 0.638302 8.08782 51.8243 -3.94032 4.58184 0.182856 8.19843 -90.4888 10.4763 0.140192 -0.97874 -1.19501 0.0969878 -0.98397 -23.7277 0.42783 -0.891366 -3.71502 0.42785 -0.89137 101.128 -51.2187 -83.7629 21.7164 -21.8139 -8.89374 -11.5294 -7.24454 -40.4886 -8.26158 -0.178221 -3.03369 -86.2349 -56.1228 84.9987 -17.3228 26.4391 4.17798 44.7899 40.3262 -60.4118 -11.7985 -0.270512 -2.20639 -0.103716 0.126716 -5.13928 -23.2922 -0.295371 6.69363 
97.0916 93.1055 -105.727 111.363 44.6226 78.1382 -179.223 20.154 87.6844 -28.1445 22.1233 1.7911 47.3726 -4.30458 12.9494 39.4897 -1.77242 -3.2286 175.873 -5.40731 93.9829 -51.0246 -4.04279 -1.5608 67.2572 2.92358 14.6405 51.044 -2.20169 8.78208 0.293776 7.82139 -90.3458 11.232 0.423823 -0.730296 -0.439101 0.391275 -0.748239 -22.9737 0.623704 -0.569169 -2.96107 0.623707 -0.569164 100.936 -50.5343 -84.074 22.4573 -25.4157 -8.58452 -19.3764 -2.49361 -58.4642 -4.47461 -0.216408 0.517489 -85.5625 -56.7567 86.026 -19.5052 28.1344 8.65717 23.7555 40.9827 -44.0849 -11.7364 -0.05001 -4.86456 -0.274057 0.653265 -3.21849 -23.2309 -0.0275742 6.61128 
103.376 92.0191 -112.21 114.994 41.1407 71.4036 -176.593 17.7154 83.4572 -41.6667 20.5893 -0.215784 54.4609 1.67885 18.6282 40.4736 -2.09981 -4.28276 174.504 -0.716349 89.2915 -69.331 -11.6867 -3.18868 52.1735 8.27327 13.4623 28.5843 1.39024 8.00059 0.380581 8.41008 -89.6735 10.0469 0.906949 0.566199 -1.62382 0.931002 0.52572 -24.1593 0.694865 0.812601 -4.14668 0.694876 0.812599 100.751 -52.7355 -84.305 25.3735 -23.4941 -10.6659 -16.7699 -2.51825 -57.8578 -15.3377 -0.434309 -2.25223 -86.4148 -58.1283 85.0138 -13.5824 21.4783 -2.99661 4.91446 55.2519 -20.8717 -12.793 0.0746284 -6.36778 0.963729 0.879076 -4.73023 -22.942 0.277336 7.75638 
